name C:\Users\tom_v\MusculoskeletalSpecialization_revisited\Results\Case_18\motion.mot
datacolumns 32
datarows 17
range 0.34984249 0.42447555
endheader 
time	pelvis_tilt	pelvis_list	pelvis_rotation	pelvis_tx	pelvis_ty	pelvis_tz	hip_flexion_r	hip_adduction_r	hip_rotation_r	knee_angle_r	ankle_angle_r	subtalar_angle_r	mtp_angle_r	hip_flexion_l	hip_adduction_l	hip_rotation_l	knee_angle_l	ankle_angle_l	subtalar_angle_l	mtp_angle_l	lumbar_extension	lumbar_bending	lumbar_rotation	arm_flex_r	arm_add_r	arm_rot_r	elbow_flex_r	arm_flex_l	arm_add_l	arm_rot_l	elbow_flex_l	
          0.34984249	        -10.17326923	        -12.30649077	         21.50123272	          3.11509984	          0.93719492	         -0.02721397	         59.58163070	         -6.60459125	         -9.32240717	        -58.49792349	         14.42436394	          4.86064230	         -1.87666039	          4.19752902	        -16.19097424	          9.12803317	        -40.45646674	        -20.99379464	         -5.14196331	         -1.85716393	         -0.69097739	         10.69928402	        -26.15302889	        -69.99992859	        -42.36222996	        -13.19867452	          0.00009030	         49.99721814	          4.99973647	          8.88430584	        114.35101275	
          0.35450706	         -9.13358330	        -11.81939237	         22.58132567	          3.15562091	          0.94010441	         -0.02874505	         58.84042139	         -7.59537191	         -9.56791944	        -56.82007267	         15.38427669	          4.86643977	         -1.82405923	          2.88348482	        -16.50593550	          9.37353970	        -40.99828203	        -21.25814251	         -2.05483621	          0.41726445	         -1.97603429	         10.83450372	        -27.65819150	        -69.97371582	        -42.59410365	         -9.82313507	          0.44115639	         49.99436863	          4.88970549	         11.41044534	        112.76160626	
          0.35917162	         -8.06067418	        -11.27885980	         23.68082798	          3.19600906	          0.94319602	         -0.03018939	         57.82458426	         -8.52628428	         -9.77230800	        -54.90872957	         16.29381127	          4.96671405	         -1.83140634	          1.64186927	        -16.74870364	          9.53477293	        -41.55559713	        -21.25859584	         -1.52393666	          2.30559368	         -3.32662535	         10.96565329	        -29.04646703	        -69.99002936	        -42.51927185	         -3.11230569	          1.74538116	         49.95372564	          4.69465203	         13.09035396	        110.01450440	
          0.36383619	         -6.93962169	        -10.70779469	         24.79839846	          3.23626986	          0.94651188	         -0.03149043	         56.51655701	         -9.34942832	         -9.92672614	        -52.75163801	         17.12502413	          5.09216614	         -1.87022237	          0.48684497	        -16.97577569	          9.62459674	        -42.11116597	        -21.53535406	         -2.86870208	          3.81272274	         -4.74657257	         11.12175025	        -30.32376029	        -69.99319058	        -42.28589921	          5.37449187	          4.10650044	         49.87691117	          4.48037156	         13.73086210	        106.04226298	
          0.36850076	         -5.78745409	        -10.11874184	         25.92756390	          3.27639324	          0.95001074	         -0.03257309	         54.95435843	        -10.04006661	         -9.99968266	        -50.38550184	         17.85209883	          5.22242639	         -1.80370255	         -0.53753390	        -17.22563225	          9.71933088	        -42.71754337	        -21.55752349	         -4.13916087	          4.51516391	         -6.21545878	         11.31389271	        -31.52837413	        -69.94828701	        -42.06346093	         13.33641273	          7.92840605	         49.74987922	          4.24054473	         13.23702359	        101.17437161	
          0.37316532	         -4.68614673	         -9.47746872	         27.03207414	          3.31636070	          0.95355681	         -0.03335116	         53.26038876	        -10.62819305	         -9.90446223	        -47.90261033	         18.63579802	          5.41721137	         -2.69066704	         -1.35675247	        -17.43318868	          9.86293891	        -43.41263351	        -21.17095545	         -4.19774098	          4.52271805	         -7.67030713	         11.47447619	        -32.71467821	        -69.89251132	        -41.91670491	         18.36196666	         13.48744156	         49.62051819	          3.80390609	         11.81283171	         95.88916760	
          0.37782989	         -3.73133531	         -8.72988277	         28.03333540	          3.35619543	          0.95701367	         -0.03368369	         51.58616735	        -11.14510515	         -9.52609720	        -45.41272522	         19.09937902	          5.55493473	         -2.28264391	         -1.93124945	        -17.48743758	          9.98895556	        -44.17505428	        -20.87847704	         -3.31632454	          4.87054192	         -9.05595376	         11.49582129	        -33.88343450	        -69.88514629	        -41.57360034	         19.16840668	         20.39931393	         49.59620687	          2.80423920	         10.15950355	         90.60575438	
          0.38249446	         -2.91697623	         -7.87130660	         28.86434367	          3.39598954	          0.96036333	         -0.03345488	         49.95302921	        -11.56063933	         -8.84844118	        -42.96720554	         19.34566405	          5.62137906	          0.11447253	         -2.32802100	        -17.38198544	          9.96738361	        -44.97245681	        -20.70725740	         -2.14400869	          5.39564153	        -10.40027677	         11.36844101	        -34.99366804	        -69.95728003	        -40.50203415	         15.64546062	         27.85161924	         49.71093767	          0.84506747	          9.13633607	         85.73303571	
          0.38715902	         -2.21939556	         -6.97628895	         29.46950687	          3.43585315	          0.96356182	         -0.03257788	         48.36423396	        -11.79391035	         -7.94783904	        -40.56226519	         19.77393163	          5.62601751	          2.39597678	         -2.58385648	        -17.20379271	          9.68177028	        -45.80020139	        -20.38715419	         -1.09830607	          5.64809764	        -11.70111569	         11.16847003	        -35.98588790	        -69.98873796	        -38.24802237	          8.63937216	         35.28723211	         49.89852183	         -2.39335446	          9.56501871	         81.70970434	
          0.39182359	         -1.66468182	         -6.17685399	         29.77377897	          3.47590637	          0.96645919	         -0.03097062	         46.90387251	        -11.73297377	         -6.91386469	        -38.18506148	         20.60624703	          5.50293872	          1.68186367	         -2.64843678	        -17.06269996	          9.04732768	        -46.66437648	        -19.87899659	         -0.30438358	          5.80696677	        -12.86996147	         10.98403822	        -36.77752910	        -69.57119609	        -34.74550900	         -0.02470526	         42.48403772	         49.99981645	         -6.96967219	         11.85706859	         79.02299286	
          0.39648816	         -1.28631884	         -5.54349937	         29.70517812	          3.51626625	          0.96897010	         -0.02860638	         45.65358199	        -11.32320472	         -5.80992387	        -35.84031976	         21.56575565	          5.03492880	         -2.56489381	         -2.49833630	        -16.98655440	          8.04096835	        -47.54688779	        -19.30157353	          0.28493997	          6.00254115	        -13.84852408	         10.81360734	        -37.32485330	        -68.02780945	        -30.65003282	         -7.38005593	         48.86035459	         49.67297082	        -12.54052424	         15.32977862	         78.25403055	
          0.40115272	         -1.08527097	         -5.08574134	         29.21174834	          3.55702022	          0.97110980	         -0.02554368	         44.63949640	        -10.56332864	         -4.69676333	        -33.55217874	         21.34462064	          3.90165215	         -2.24947973	         -2.17583347	        -16.95473666	          6.68257753	        -48.41631505	        -18.72685076	          0.79125387	          6.19768797	        -14.64711521	         10.62432101	        -37.60921712	        -65.04416865	        -26.74267606	        -11.95272663	         53.56956520	         48.41921472	        -18.59742933	         18.42223761	         79.86332240	
          0.40581729	         -1.02339741	         -4.76573220	         28.32891060	          3.59822034	          0.97297981	         -0.02197973	         43.75999875	         -9.53880970	         -3.71227072	        -31.31055808	         20.90032332	          2.68150612	          0.09484519	         -1.75358221	        -16.92844645	          5.07825883	        -49.24408626	        -18.15852097	          1.32149021	          6.33636875	        -15.32250372	         10.38826839	        -37.69736394	        -60.46982625	        -23.63804412	        -13.19842197	         55.48848565	         45.59013444	        -24.66905855	         19.39905331	         84.00483413	
          0.41048185	         -1.05627242	         -4.54317839	         27.11271811	          3.63985304	          0.97468377	         -0.01811321	         42.90447634	         -8.33721055	         -2.98046324	        -29.09646167	         21.06039597	          1.94644725	          0.87369481	         -1.28886773	        -16.87660447	          3.33678261	        -50.02010957	        -17.57524753	          1.91770867	          6.42475998	        -15.92966686	         10.09089226	        -37.66533219	        -54.17093675	        -21.65472272	        -10.86919487	         53.57827885	         40.60262543	        -30.31205123	         17.08012061	         90.29931553	
          0.41514642	         -1.11542918	         -4.38641036	         25.59339943	          3.68178365	          0.97630206	         -0.01406638	         41.98157114	         -6.99697481	         -2.55182165	        -26.91590339	         21.74731210	          1.88375163	         -1.42340046	         -0.84413239	        -16.79001408	          1.52269107	        -50.76315771	        -16.94866455	          2.56209244	          6.48448480	        -16.53441101	          9.72649527	        -37.45584927	        -46.03046018	        -20.42508357	         -5.32473489	         47.13679680	         33.72302993	        -35.18190754	         12.05557171	         97.37396490	
          0.41981099	         -1.18130428	         -4.30935896	         23.78659268	          3.72382052	          0.97772058	         -0.00995287	         41.00447610	         -5.52565827	         -2.41644307	        -24.82253214	         22.03217212	          2.25083382	         -3.00725216	         -0.39654564	        -16.68156652	         -0.31527011	        -51.54171295	        -16.05820181	          3.25739554	          5.25783369	        -17.10568114	          9.33014075	        -36.97642055	        -36.34518978	        -19.16047660	          2.86221934	         36.57860508	         25.52897682	        -38.97162823	          5.35466770	        104.03503225	
          0.42447555	         -1.26680916	         -4.33480437	         21.75060936	          3.76577558	          0.97870360	         -0.00597336	         40.01248533	         -3.96404890	         -2.58265793	        -22.88163533	         21.68913692	          2.89315329	         -1.84227075	          0.13614082	        -16.56318617	         -2.08893269	        -52.43788716	        -14.59672526	          3.92815195	         -1.25360403	        -17.56132290	          8.97322263	        -36.14191281	        -26.14452224	        -16.96590144	         12.31284516	         23.63193063	         16.85918231	        -41.44528638	         -1.84135882	        109.47285038	
